<?xml version="1.0" standalone="no"?>
<!DOCTYPE svg PUBLIC "-//W3C//DTD SVG 20010904//EN"
 "http://www.w3.org/TR/2001/REC-SVG-20010904/DTD/svg10.dtd">
<svg version="1.0" xmlns="http://www.w3.org/2000/svg"
 width="1300.000000pt" height="1300.000000pt" viewBox="0 0 1300.000000 1300.000000"
 preserveAspectRatio="xMidYMid meet">
<metadata>
Created by potrace 1.16, written by Peter Selinger 2001-2019
</metadata>
<g transform="translate(0.000000,1300.000000) scale(0.100000,-0.100000)"
fill="#000000" stroke="none">
<path d="M6729 9341 l-29 -29 0 -202 0 -202 30 -30 30 -30 0 -159 0 -159
-1042 -2 -1043 -3 -45 -24 c-25 -13 -76 -53 -115 -90 -73 -68 -463 -443 -714
-686 -158 -152 -325 -313 -551 -530 -646 -621 -610 -584 -610 -634 0 -60 41
-101 101 -101 42 0 61 15 249 200 3 3 68 66 145 140 367 354 715 689 860 830
88 86 211 205 274 265 62 61 179 174 260 253 153 149 191 173 243 153 25 -9
31 -14 189 -166 57 -55 147 -140 199 -189 52 -49 140 -133 195 -185 55 -53
181 -172 280 -266 257 -243 373 -353 510 -485 391 -375 445 -422 463 -408 15
12 16 11 2 -5 -13 -17 -12 -21 10 -39 14 -10 43 -28 65 -38 39 -19 89 -20
1875 -19 1475 0 1838 2 1852 12 32 25 32 62 0 98 l-30 34 -29 -25 -28 -25 24
28 25 27 -40 43 c-21 23 -91 96 -155 162 -63 66 -232 242 -374 390 -249 259
-366 381 -485 504 -30 31 -201 208 -379 394 -178 185 -340 347 -360 360 -35
21 -46 22 -323 25 l-288 3 0 157 0 157 33 16 c54 26 58 44 55 257 l-3 194 -33
29 -32 29 -382 0 -381 0 24 -27 24 -28 -31 28 -30 27 -228 0 -228 0 -29 -29z
m611 -231 l0 -70 -230 0 -230 0 0 70 0 70 230 0 230 0 0 -70z m0 -636 l0 -376
-43 39 c-24 21 -112 101 -195 178 l-152 140 0 197 0 198 195 0 195 0 0 -376z"/>
<path d="M4611 7908 c-309 -298 -410 -395 -576 -557 -188 -183 -358 -348 -658
-639 -98 -95 -185 -185 -193 -200 -10 -20 -14 -72 -14 -212 l0 -186 153 -151
152 -152 335 0 335 -1 28 -30 c25 -28 27 -37 27 -116 0 -81 -1 -87 -29 -115
l-29 -29 -188 0 -188 0 35 -37 34 -38 -40 38 -41 37 -175 0 c-197 0 -211 4
-229 68 -21 77 -5 185 31 208 7 4 28 10 46 13 l33 6 -145 145 -145 145 0
-1108 c0 -797 3 -1114 11 -1130 6 -12 21 -30 33 -39 20 -16 95 -18 1145 -18
l1124 0 -19 23 -19 22 26 -22 25 -23 2228 0 c2423 0 2267 -4 2294 55 9 20 12
308 12 1184 0 1126 -1 1159 -19 1182 l-19 24 -1612 3 c-1293 2 -1610 0 -1604
-10 6 -10 4 -11 -7 0 -7 6 -37 12 -66 12 -70 0 -123 26 -202 100 -63 59 -65
60 -85 43 -21 -18 -21 -18 -3 3 17 20 15 22 -60 94 -43 41 -130 124 -193 185
-64 60 -194 184 -290 275 -96 91 -218 206 -270 256 -52 50 -196 187 -320 304
-124 118 -275 261 -335 319 -146 140 -193 181 -206 181 -6 0 -64 -50 -128
-112z m225 -239 c73 -70 82 -90 60 -124 -16 -25 -19 -25 -159 -25 -155 0 -167
4 -167 52 0 22 15 43 68 93 91 87 110 88 198 4z m400 -391 c21 -15 75 -61 118
-102 67 -62 79 -79 79 -105 0 -17 -5 -37 -12 -44 -16 -16 -1294 -23 -1335 -7
-33 12 -48 47 -32 76 21 38 172 173 217 194 42 19 61 20 485 17 l440 -2 40
-27z m-869 -478 c17 -6 36 -23 44 -37 15 -28 18 -146 6 -195 -15 -56 -28 -58
-460 -58 -419 0 -417 0 -432 49 -6 21 6 37 98 127 87 85 112 104 148 112 61
14 558 15 596 2z m1383 -14 c49 -26 220 -196 220 -218 0 -10 -9 -27 -20 -38
-19 -19 -33 -20 -415 -20 -437 0 -443 1 -464 61 -15 43 -14 151 1 185 23 51
47 54 358 51 258 -2 288 -4 320 -21z m419 -487 c17 -6 36 -20 42 -32 12 -21
13 -174 3 -202 -11 -26 -60 -45 -120 -45 -40 0 -64 -5 -78 -17 -20 -17 -20
-17 -7 0 13 16 -50 17 -1296 17 l-1310 0 -26 24 c-30 27 -43 93 -33 164 6 47
27 79 61 93 32 13 2726 11 2764 -2z m29 -515 c19 -22 22 -36 22 -120 0 -87 -2
-97 -25 -119 l-24 -25 -420 0 c-287 0 -428 4 -444 11 -35 16 -47 50 -47 135 0
63 13 118 33 136 5 5 548 13 707 10 173 -3 175 -3 198 -28z m1206 -96 c28 -25
31 -47 28 -206 l-2 -92 -32 -20 c-28 -17 -51 -20 -143 -20 -110 0 -143 9 -167
44 -4 6 -8 63 -8 127 0 104 2 119 21 143 31 39 51 45 171 45 97 1 109 -1 132
-21z m496 7 c48 -25 60 -61 60 -180 0 -104 -1 -107 -29 -136 -29 -29 -30 -29
-150 -29 -112 0 -122 2 -148 24 -28 24 -28 26 -31 150 l-4 126 30 30 c30 30
32 30 137 30 75 0 115 -4 135 -15z m1013 -10 c27 -25 27 -27 27 -151 0 -125 0
-126 -29 -155 -29 -29 -30 -29 -150 -29 -112 0 -122 2 -147 24 -26 21 -28 30
-32 115 -6 117 9 173 52 201 26 17 48 20 141 20 104 0 112 -1 138 -25z m487
15 c9 -6 20 -5 30 3 12 9 13 9 3 -2 -9 -11 -7 -20 9 -42 41 -56 37 -241 -7
-285 -23 -23 -31 -24 -140 -24 -120 0 -166 12 -179 45 -3 9 -6 73 -6 141 0
119 1 126 25 149 23 24 30 25 137 25 62 0 120 -4 128 -10z m-5229 -419 c27
-28 29 -34 29 -111 0 -84 -15 -132 -45 -144 -9 -3 -182 -6 -384 -6 -409 0
-401 -1 -421 68 -13 48 -13 123 1 159 23 64 17 63 422 63 l369 0 29 -29z
m2024 4 c23 -22 25 -32 25 -114 0 -100 -11 -137 -45 -145 -31 -8 -848 -8 -869
0 -29 11 -46 59 -46 132 0 82 13 126 43 140 14 7 168 11 445 11 l423 1 24 -25z
m1209 -124 c25 -24 26 -28 26 -152 0 -172 -1 -173 -145 -177 -180 -6 -205 17
-205 186 0 164 9 171 212 168 77 -1 89 -4 112 -25z m480 22 c14 -3 37 -17 51
-30 24 -24 25 -32 25 -131 0 -166 -26 -192 -196 -192 -107 0 -139 11 -154 53
-14 42 -13 220 2 253 19 40 61 54 160 53 48 -1 98 -4 112 -6z m1017 -14 c32
-17 39 -45 39 -158 0 -169 -12 -181 -168 -181 -161 0 -190 28 -191 186 -2 158
23 177 213 167 49 -2 97 -8 107 -14z m536 -12 c24 -24 27 -35 31 -114 5 -110
-10 -158 -58 -191 -33 -22 -43 -23 -148 -20 -152 4 -152 4 -152 173 0 108 2
125 20 148 26 33 42 36 173 33 102 -2 110 -4 134 -29z m-5265 -375 c21 -20 23
-32 23 -121 0 -93 -2 -101 -24 -120 -14 -12 -34 -24 -45 -27 -12 -3 -180 -4
-373 -2 l-353 3 -27 28 c-26 26 -28 33 -28 111 0 89 13 127 49 144 14 7 147
10 388 9 l367 -2 23 -23z m2029 -1 c16 -19 19 -39 19 -120 -1 -100 -7 -118
-47 -139 -35 -19 -825 -17 -862 2 -38 20 -51 55 -51 142 0 80 15 118 54 135
12 4 212 7 444 6 l424 -2 19 -24z m-2030 -500 c28 -28 29 -34 29 -115 0 -81
-2 -88 -29 -118 l-29 -33 -345 -3 c-189 -2 -359 1 -377 5 -19 5 -42 21 -53 35
-39 52 -34 192 8 234 l24 24 371 0 372 0 29 -29z m2011 18 c32 -17 48 -69 45
-150 -3 -79 -17 -111 -54 -128 -16 -7 -162 -11 -429 -11 -453 0 -453 0 -474
66 -7 20 -10 69 -8 111 3 67 6 78 31 99 l28 24 420 0 c282 0 427 -4 441 -11z"/>
</g>
</svg>
