<?xml version="1.0" standalone="no"?>
<!DOCTYPE svg PUBLIC "-//W3C//DTD SVG 20010904//EN"
 "http://www.w3.org/TR/2001/REC-SVG-20010904/DTD/svg10.dtd">
<svg version="1.0" xmlns="http://www.w3.org/2000/svg"
 width="1300.000000pt" height="1300.000000pt" viewBox="0 0 1300.000000 1300.000000"
 preserveAspectRatio="xMidYMid meet">
<metadata>
Created by potrace 1.16, written by Peter Selinger 2001-2019
</metadata>
<g transform="translate(0.000000,1300.000000) scale(0.100000,-0.100000)"
fill="#000000" stroke="none">
<path d="M3577 8999 c-9 -5 -24 -24 -33 -40 -12 -25 -13 -37 -4 -65 22 -66 9
-64 485 -64 l431 0 38 -122 c68 -217 117 -372 131 -413 7 -22 31 -98 54 -170
69 -223 298 -953 418 -1335 63 -201 125 -399 138 -440 13 -41 78 -248 145
-460 67 -212 130 -414 140 -450 12 -40 29 -73 45 -87 l26 -23 1520 0 c1024 0
1527 3 1540 10 27 15 52 68 44 97 -3 14 -18 36 -32 49 l-26 24 -1473 0 c-811
0 -1474 1 -1474 3 0 2 -22 74 -50 162 -27 87 -48 161 -45 163 3 3 341 36 752
73 768 70 2263 205 2388 215 81 7 111 23 130 68 11 27 179 554 260 816 13 41
85 271 160 510 205 651 189 593 170 634 -11 23 -27 38 -48 45 -21 7 -282 10
-747 9 -393 -1 -1413 -1 -2266 0 l-1551 2 -17 58 c-10 31 -26 82 -36 112 -10
30 -51 159 -90 285 -89 291 -97 312 -123 330 -18 13 -91 15 -502 15 -307 0
-486 -4 -498 -11z m1943 -984 c0 -3 34 -155 76 -338 42 -183 84 -367 94 -409
l17 -78 -272 0 -271 0 -46 148 c-26 81 -83 263 -127 404 -45 141 -81 262 -81
267 0 8 96 11 305 11 168 0 305 -2 305 -5z m856 -371 c28 -204 53 -389 56
-412 l6 -42 -272 0 -272 0 -52 233 c-28 127 -68 302 -87 387 -20 85 -39 167
-42 183 l-6 27 309 -2 309 -3 51 -371z m744 366 c0 -5 0 -185 0 -400 0 -214 0
-397 0 -405 0 -13 -34 -15 -250 -15 -193 0 -250 3 -250 13 0 13 -95 716 -106
780 l-6 37 306 0 c197 0 306 -4 306 -10z m710 3 c0 -9 -52 -414 -81 -623 -10
-79 -19 -157 -19 -172 l0 -28 -210 0 -210 0 0 415 0 415 260 0 c143 0 260 -3
260 -7z m710 0 c0 -5 -7 -37 -16 -73 -8 -36 -46 -209 -85 -385 -38 -176 -71
-330 -74 -342 l-5 -23 -225 0 c-124 0 -225 1 -225 3 0 1 23 175 50 386 28 212
50 397 50 413 l0 28 265 0 c146 0 265 -3 265 -7z m700 -20 c-5 -16 -59 -188
-120 -383 -61 -195 -116 -370 -121 -387 l-11 -33 -219 0 c-120 0 -219 2 -219
5 0 3 20 99 45 213 25 114 62 281 81 372 20 91 40 182 45 203 l10 37 259 0
259 0 -9 -27z m-3486 -1010 c16 -56 207 -915 204 -918 -5 -5 -422 -45 -426
-41 -5 5 -302 955 -302 966 0 6 95 10 259 10 239 0 260 -1 265 -17z m722 -73
c7 -47 22 -155 33 -240 69 -502 74 -542 62 -549 -12 -8 -300 -34 -380 -35 -43
-1 -45 0 -53 34 -4 19 -48 213 -97 430 -49 217 -92 407 -96 423 l-7 27 263 -2
264 -3 11 -85z m646 -321 c2 -266 -1 -413 -7 -417 -5 -4 -84 -14 -174 -22
-162 -15 -164 -15 -172 5 -4 11 -31 191 -59 400 -28 209 -53 395 -57 413 l-5
32 236 0 236 0 2 -411z m574 379 c-3 -18 -26 -195 -52 -393 -25 -198 -47 -361
-48 -363 -2 -1 -52 -7 -112 -12 -60 -6 -124 -12 -141 -14 l-33 -5 0 410 0 409
196 0 196 0 -6 -32z m609 -25 c-7 -32 -43 -197 -80 -368 -37 -170 -69 -311
-70 -313 -6 -7 -356 -34 -362 -28 -3 3 8 117 26 253 18 137 40 308 49 381 l16
132 217 0 217 0 -13 -57z m608 10 c-8 -27 -25 -82 -38 -123 -129 -414 -158
-506 -165 -513 -8 -9 -348 -42 -355 -35 -3 3 12 86 34 184 22 98 57 259 78
356 l38 178 212 0 211 0 -15 -47z"/>
<path d="M5910 5094 c-255 -55 -440 -283 -440 -544 0 -296 226 -537 524 -557
253 -17 487 147 567 397 29 89 29 230 0 320 -48 151 -150 269 -294 339 -120
59 -229 73 -357 45z m272 -206 c73 -34 152 -112 186 -186 23 -49 27 -70 27
-152 0 -82 -4 -103 -27 -152 -35 -76 -95 -138 -170 -179 -60 -33 -68 -34 -168
-34 -93 0 -112 3 -162 27 -76 35 -142 104 -181 186 -27 58 -31 78 -31 152 -1
71 4 94 26 142 35 76 72 121 134 164 73 50 124 64 224 61 66 -2 98 -9 142 -29z"/>
<path d="M7870 5100 c-25 -4 -70 -18 -101 -29 -453 -171 -490 -800 -61 -1019
104 -53 168 -66 289 -60 124 7 213 39 309 112 271 207 292 619 43 850 -128
119 -311 175 -479 146z m252 -212 c74 -34 152 -112 186 -186 24 -50 27 -69 27
-157 0 -89 -3 -106 -28 -157 -38 -77 -107 -144 -187 -182 -57 -27 -75 -31
-155 -31 -80 0 -97 3 -155 31 -84 41 -145 101 -184 183 -28 60 -31 75 -31 161
1 107 19 162 81 237 43 52 81 80 153 110 80 34 211 30 293 -9z"/>
</g>
</svg>
